<mxfile host="app.diagrams.net" modified="2023-03-17T10:20:35.110Z" agent="5.0 (Windows NT 10.0; Win64; x64) AppleWebKit/537.36 (KHTML, like Gecko) Chrome/111.0.0.0 Safari/537.36 Edg/111.0.1661.41" etag="xcCB5RWiTLF7pskPzJO7" version="21.0.6" type="github">
  <diagram name="第 1 页" id="Q-0wN5ce249bjcxuniA6">
    <mxGraphModel dx="1050" dy="587" grid="1" gridSize="10" guides="1" tooltips="1" connect="1" arrows="1" fold="1" page="1" pageScale="1" pageWidth="827" pageHeight="1169" math="0" shadow="0">
      <root>
        <mxCell id="0" />
        <mxCell id="1" parent="0" />
        <mxCell id="1FSIef8bJNcw6CDsYBxZ-60" value="" style="ellipse;whiteSpace=wrap;html=1;aspect=fixed;fillColor=none;dashed=1;strokeWidth=3;" vertex="1" parent="1">
          <mxGeometry x="524" y="160.5" width="160" height="160" as="geometry" />
        </mxCell>
        <mxCell id="1FSIef8bJNcw6CDsYBxZ-2" value="" style="endArrow=classic;html=1;rounded=0;strokeWidth=2;" edge="1" parent="1">
          <mxGeometry width="50" height="50" relative="1" as="geometry">
            <mxPoint x="20" y="360" as="sourcePoint" />
            <mxPoint x="20" y="80" as="targetPoint" />
          </mxGeometry>
        </mxCell>
        <mxCell id="1FSIef8bJNcw6CDsYBxZ-3" value="" style="endArrow=classic;html=1;rounded=0;strokeWidth=2;" edge="1" parent="1">
          <mxGeometry width="50" height="50" relative="1" as="geometry">
            <mxPoint x="20" y="360" as="sourcePoint" />
            <mxPoint x="350" y="360" as="targetPoint" />
          </mxGeometry>
        </mxCell>
        <mxCell id="1FSIef8bJNcw6CDsYBxZ-5" value="" style="ellipse;whiteSpace=wrap;html=1;aspect=fixed;fillColor=#1ba1e2;strokeColor=#006EAF;strokeWidth=0;fontColor=#ffffff;opacity=60;" vertex="1" parent="1">
          <mxGeometry x="70" y="160" width="20" height="20" as="geometry" />
        </mxCell>
        <mxCell id="1FSIef8bJNcw6CDsYBxZ-6" value="" style="ellipse;whiteSpace=wrap;html=1;aspect=fixed;fillColor=#f8cecc;strokeColor=#b85450;strokeWidth=0;" vertex="1" parent="1">
          <mxGeometry x="220" y="200" width="20" height="20" as="geometry" />
        </mxCell>
        <mxCell id="1FSIef8bJNcw6CDsYBxZ-7" value="" style="endArrow=none;dashed=1;html=1;dashPattern=1 3;strokeWidth=3;rounded=0;" edge="1" parent="1">
          <mxGeometry width="50" height="50" relative="1" as="geometry">
            <mxPoint x="20" y="360" as="sourcePoint" />
            <mxPoint x="290" y="90" as="targetPoint" />
          </mxGeometry>
        </mxCell>
        <mxCell id="1FSIef8bJNcw6CDsYBxZ-8" value="" style="ellipse;whiteSpace=wrap;html=1;aspect=fixed;fillColor=#f8cecc;strokeColor=#b85450;strokeWidth=0;" vertex="1" parent="1">
          <mxGeometry x="200" y="240" width="20" height="20" as="geometry" />
        </mxCell>
        <mxCell id="1FSIef8bJNcw6CDsYBxZ-9" value="" style="ellipse;whiteSpace=wrap;html=1;aspect=fixed;fillColor=#f8cecc;strokeColor=#b85450;strokeWidth=0;" vertex="1" parent="1">
          <mxGeometry x="240" y="250" width="20" height="20" as="geometry" />
        </mxCell>
        <mxCell id="1FSIef8bJNcw6CDsYBxZ-10" value="" style="ellipse;whiteSpace=wrap;html=1;aspect=fixed;fillColor=#f8cecc;strokeColor=#b85450;strokeWidth=0;" vertex="1" parent="1">
          <mxGeometry x="160" y="300" width="20" height="20" as="geometry" />
        </mxCell>
        <mxCell id="1FSIef8bJNcw6CDsYBxZ-11" value="" style="ellipse;whiteSpace=wrap;html=1;aspect=fixed;fillColor=#f8cecc;strokeColor=#b85450;strokeWidth=0;" vertex="1" parent="1">
          <mxGeometry x="280" y="190" width="20" height="20" as="geometry" />
        </mxCell>
        <mxCell id="1FSIef8bJNcw6CDsYBxZ-12" value="" style="ellipse;whiteSpace=wrap;html=1;aspect=fixed;fillColor=#f8cecc;strokeColor=#b85450;strokeWidth=0;" vertex="1" parent="1">
          <mxGeometry x="290" y="280" width="20" height="20" as="geometry" />
        </mxCell>
        <mxCell id="1FSIef8bJNcw6CDsYBxZ-13" value="" style="ellipse;whiteSpace=wrap;html=1;aspect=fixed;fillColor=#f8cecc;strokeColor=#b85450;strokeWidth=0;" vertex="1" parent="1">
          <mxGeometry x="230" y="320" width="20" height="20" as="geometry" />
        </mxCell>
        <mxCell id="1FSIef8bJNcw6CDsYBxZ-20" value="" style="ellipse;whiteSpace=wrap;html=1;aspect=fixed;fillColor=#f8cecc;strokeColor=#b85450;strokeWidth=0;" vertex="1" parent="1">
          <mxGeometry x="280" y="230" width="20" height="20" as="geometry" />
        </mxCell>
        <mxCell id="1FSIef8bJNcw6CDsYBxZ-24" value="" style="ellipse;whiteSpace=wrap;html=1;aspect=fixed;fillColor=#1ba1e2;strokeColor=#006EAF;strokeWidth=0;fontColor=#ffffff;opacity=60;" vertex="1" parent="1">
          <mxGeometry x="130" y="130" width="20" height="20" as="geometry" />
        </mxCell>
        <mxCell id="1FSIef8bJNcw6CDsYBxZ-25" value="" style="ellipse;whiteSpace=wrap;html=1;aspect=fixed;fillColor=#1ba1e2;strokeColor=#006EAF;strokeWidth=0;fontColor=#ffffff;opacity=60;" vertex="1" parent="1">
          <mxGeometry x="40" y="250" width="20" height="20" as="geometry" />
        </mxCell>
        <mxCell id="1FSIef8bJNcw6CDsYBxZ-26" value="" style="ellipse;whiteSpace=wrap;html=1;aspect=fixed;fillColor=#1ba1e2;strokeColor=#006EAF;strokeWidth=0;fontColor=#ffffff;opacity=60;" vertex="1" parent="1">
          <mxGeometry x="130" y="190" width="20" height="20" as="geometry" />
        </mxCell>
        <mxCell id="1FSIef8bJNcw6CDsYBxZ-27" value="" style="ellipse;whiteSpace=wrap;html=1;aspect=fixed;fillColor=#1ba1e2;strokeColor=#006EAF;strokeWidth=0;fontColor=#ffffff;opacity=60;" vertex="1" parent="1">
          <mxGeometry x="160" y="160" width="20" height="20" as="geometry" />
        </mxCell>
        <mxCell id="1FSIef8bJNcw6CDsYBxZ-29" value="" style="ellipse;whiteSpace=wrap;html=1;aspect=fixed;fillColor=#1ba1e2;strokeColor=#006EAF;strokeWidth=0;fontColor=#ffffff;opacity=60;" vertex="1" parent="1">
          <mxGeometry x="120" y="160" width="20" height="20" as="geometry" />
        </mxCell>
        <mxCell id="1FSIef8bJNcw6CDsYBxZ-30" value="" style="ellipse;whiteSpace=wrap;html=1;aspect=fixed;fillColor=#1ba1e2;strokeColor=#006EAF;strokeWidth=0;fontColor=#ffffff;opacity=60;" vertex="1" parent="1">
          <mxGeometry x="90" y="190" width="20" height="20" as="geometry" />
        </mxCell>
        <mxCell id="1FSIef8bJNcw6CDsYBxZ-31" value="" style="ellipse;whiteSpace=wrap;html=1;aspect=fixed;fillColor=#1ba1e2;strokeColor=#006EAF;strokeWidth=0;fontColor=#ffffff;opacity=60;" vertex="1" parent="1">
          <mxGeometry x="40" y="200" width="20" height="20" as="geometry" />
        </mxCell>
        <mxCell id="1FSIef8bJNcw6CDsYBxZ-32" value="" style="ellipse;whiteSpace=wrap;html=1;aspect=fixed;fillColor=#1ba1e2;strokeColor=#006EAF;strokeWidth=0;fontColor=#ffffff;opacity=60;" vertex="1" parent="1">
          <mxGeometry x="80" y="220" width="20" height="20" as="geometry" />
        </mxCell>
        <mxCell id="1FSIef8bJNcw6CDsYBxZ-37" value="" style="endArrow=classic;html=1;rounded=0;strokeWidth=2;" edge="1" parent="1">
          <mxGeometry width="50" height="50" relative="1" as="geometry">
            <mxPoint x="414" y="360" as="sourcePoint" />
            <mxPoint x="414" y="80" as="targetPoint" />
          </mxGeometry>
        </mxCell>
        <mxCell id="1FSIef8bJNcw6CDsYBxZ-38" value="" style="endArrow=classic;html=1;rounded=0;strokeWidth=2;" edge="1" parent="1">
          <mxGeometry width="50" height="50" relative="1" as="geometry">
            <mxPoint x="414" y="360" as="sourcePoint" />
            <mxPoint x="744" y="360" as="targetPoint" />
          </mxGeometry>
        </mxCell>
        <mxCell id="1FSIef8bJNcw6CDsYBxZ-39" value="" style="ellipse;whiteSpace=wrap;html=1;aspect=fixed;fillColor=#1ba1e2;strokeColor=#006EAF;strokeWidth=0;fontColor=#ffffff;opacity=60;" vertex="1" parent="1">
          <mxGeometry x="670" y="310.5" width="20" height="20" as="geometry" />
        </mxCell>
        <mxCell id="1FSIef8bJNcw6CDsYBxZ-40" value="" style="ellipse;whiteSpace=wrap;html=1;aspect=fixed;fillColor=#f8cecc;strokeColor=#b85450;strokeWidth=0;" vertex="1" parent="1">
          <mxGeometry x="574" y="200" width="20" height="20" as="geometry" />
        </mxCell>
        <mxCell id="1FSIef8bJNcw6CDsYBxZ-42" value="" style="ellipse;whiteSpace=wrap;html=1;aspect=fixed;fillColor=#f8cecc;strokeColor=#b85450;strokeWidth=0;" vertex="1" parent="1">
          <mxGeometry x="554" y="230.5" width="20" height="20" as="geometry" />
        </mxCell>
        <mxCell id="1FSIef8bJNcw6CDsYBxZ-43" value="" style="ellipse;whiteSpace=wrap;html=1;aspect=fixed;fillColor=#f8cecc;strokeColor=#b85450;strokeWidth=0;" vertex="1" parent="1">
          <mxGeometry x="634" y="250" width="20" height="20" as="geometry" />
        </mxCell>
        <mxCell id="1FSIef8bJNcw6CDsYBxZ-44" value="" style="ellipse;whiteSpace=wrap;html=1;aspect=fixed;fillColor=#f8cecc;strokeColor=#b85450;strokeWidth=0;" vertex="1" parent="1">
          <mxGeometry x="554" y="270" width="20" height="20" as="geometry" />
        </mxCell>
        <mxCell id="1FSIef8bJNcw6CDsYBxZ-45" value="" style="ellipse;whiteSpace=wrap;html=1;aspect=fixed;fillColor=#f8cecc;strokeColor=#b85450;strokeWidth=0;" vertex="1" parent="1">
          <mxGeometry x="594" y="230.5" width="20" height="20" as="geometry" />
        </mxCell>
        <mxCell id="1FSIef8bJNcw6CDsYBxZ-46" value="" style="ellipse;whiteSpace=wrap;html=1;aspect=fixed;fillColor=#f8cecc;strokeColor=#b85450;strokeWidth=0;" vertex="1" parent="1">
          <mxGeometry x="634" y="220" width="20" height="20" as="geometry" />
        </mxCell>
        <mxCell id="1FSIef8bJNcw6CDsYBxZ-47" value="" style="ellipse;whiteSpace=wrap;html=1;aspect=fixed;fillColor=#f8cecc;strokeColor=#b85450;strokeWidth=0;" vertex="1" parent="1">
          <mxGeometry x="604" y="270" width="20" height="20" as="geometry" />
        </mxCell>
        <mxCell id="1FSIef8bJNcw6CDsYBxZ-48" value="" style="ellipse;whiteSpace=wrap;html=1;aspect=fixed;fillColor=#f8cecc;strokeColor=#b85450;strokeWidth=0;" vertex="1" parent="1">
          <mxGeometry x="614" y="180" width="20" height="20" as="geometry" />
        </mxCell>
        <mxCell id="1FSIef8bJNcw6CDsYBxZ-49" value="" style="ellipse;whiteSpace=wrap;html=1;aspect=fixed;fillColor=#1ba1e2;strokeColor=#006EAF;strokeWidth=0;fontColor=#ffffff;opacity=60;" vertex="1" parent="1">
          <mxGeometry x="480" y="290.5" width="20" height="20" as="geometry" />
        </mxCell>
        <mxCell id="1FSIef8bJNcw6CDsYBxZ-50" value="" style="ellipse;whiteSpace=wrap;html=1;aspect=fixed;fillColor=#1ba1e2;strokeColor=#006EAF;strokeWidth=0;fontColor=#ffffff;opacity=60;" vertex="1" parent="1">
          <mxGeometry x="460" y="210.5" width="20" height="20" as="geometry" />
        </mxCell>
        <mxCell id="1FSIef8bJNcw6CDsYBxZ-51" value="" style="ellipse;whiteSpace=wrap;html=1;aspect=fixed;fillColor=#1ba1e2;strokeColor=#006EAF;strokeWidth=0;fontColor=#ffffff;opacity=60;" vertex="1" parent="1">
          <mxGeometry x="664" y="150.5" width="20" height="20" as="geometry" />
        </mxCell>
        <mxCell id="1FSIef8bJNcw6CDsYBxZ-52" value="" style="ellipse;whiteSpace=wrap;html=1;aspect=fixed;fillColor=#1ba1e2;strokeColor=#006EAF;strokeWidth=0;fontColor=#ffffff;opacity=60;" vertex="1" parent="1">
          <mxGeometry x="710" y="160.5" width="20" height="20" as="geometry" />
        </mxCell>
        <mxCell id="1FSIef8bJNcw6CDsYBxZ-53" value="" style="ellipse;whiteSpace=wrap;html=1;aspect=fixed;fillColor=#1ba1e2;strokeColor=#006EAF;strokeWidth=0;fontColor=#ffffff;opacity=60;" vertex="1" parent="1">
          <mxGeometry x="700" y="250" width="20" height="20" as="geometry" />
        </mxCell>
        <mxCell id="1FSIef8bJNcw6CDsYBxZ-54" value="" style="ellipse;whiteSpace=wrap;html=1;aspect=fixed;fillColor=#1ba1e2;strokeColor=#006EAF;strokeWidth=0;fontColor=#ffffff;opacity=60;" vertex="1" parent="1">
          <mxGeometry x="624" y="100.5" width="20" height="20" as="geometry" />
        </mxCell>
        <mxCell id="1FSIef8bJNcw6CDsYBxZ-55" value="" style="ellipse;whiteSpace=wrap;html=1;aspect=fixed;fillColor=#1ba1e2;strokeColor=#006EAF;strokeWidth=0;fontColor=#ffffff;opacity=60;" vertex="1" parent="1">
          <mxGeometry x="480" y="140.5" width="20" height="20" as="geometry" />
        </mxCell>
        <mxCell id="1FSIef8bJNcw6CDsYBxZ-56" value="" style="ellipse;whiteSpace=wrap;html=1;aspect=fixed;fillColor=#1ba1e2;strokeColor=#006EAF;strokeWidth=0;fontColor=#ffffff;opacity=60;" vertex="1" parent="1">
          <mxGeometry x="554" y="120.5" width="20" height="20" as="geometry" />
        </mxCell>
        <mxCell id="1FSIef8bJNcw6CDsYBxZ-62" value="" style="ellipse;whiteSpace=wrap;html=1;aspect=fixed;fillColor=#1ba1e2;strokeColor=#006EAF;strokeWidth=0;fontColor=#ffffff;opacity=60;" vertex="1" parent="1">
          <mxGeometry x="510" y="160" width="20" height="20" as="geometry" />
        </mxCell>
        <mxCell id="1FSIef8bJNcw6CDsYBxZ-63" value="" style="ellipse;whiteSpace=wrap;html=1;aspect=fixed;fillColor=#1ba1e2;strokeColor=#006EAF;strokeWidth=0;fontColor=#ffffff;opacity=60;" vertex="1" parent="1">
          <mxGeometry x="510" y="330.5" width="20" height="20" as="geometry" />
        </mxCell>
        <mxCell id="1FSIef8bJNcw6CDsYBxZ-64" value="" style="ellipse;whiteSpace=wrap;html=1;aspect=fixed;fillColor=#1ba1e2;strokeColor=#006EAF;strokeWidth=0;fontColor=#ffffff;opacity=60;" vertex="1" parent="1">
          <mxGeometry x="624" y="330.5" width="20" height="20" as="geometry" />
        </mxCell>
        <mxCell id="1FSIef8bJNcw6CDsYBxZ-66" value="" style="ellipse;whiteSpace=wrap;html=1;aspect=fixed;fillColor=#f8cecc;strokeColor=#b85450;strokeWidth=0;" vertex="1" parent="1">
          <mxGeometry x="210" y="290" width="20" height="20" as="geometry" />
        </mxCell>
        <mxCell id="1FSIef8bJNcw6CDsYBxZ-67" value="" style="ellipse;whiteSpace=wrap;html=1;aspect=fixed;fillColor=#f8cecc;strokeColor=#b85450;strokeWidth=0;" vertex="1" parent="1">
          <mxGeometry x="130" y="270" width="20" height="20" as="geometry" />
        </mxCell>
        <mxCell id="1FSIef8bJNcw6CDsYBxZ-68" value="" style="ellipse;whiteSpace=wrap;html=1;aspect=fixed;fillColor=#1ba1e2;strokeColor=#006EAF;strokeWidth=0;fontColor=#ffffff;opacity=60;" vertex="1" parent="1">
          <mxGeometry x="180" y="120" width="20" height="20" as="geometry" />
        </mxCell>
        <mxCell id="1FSIef8bJNcw6CDsYBxZ-69" value="&lt;font style=&quot;font-size: 16px;&quot; face=&quot;Times New Roman&quot;&gt;A&lt;/font&gt;" style="text;html=1;strokeColor=none;fillColor=none;align=center;verticalAlign=middle;whiteSpace=wrap;rounded=0;" vertex="1" parent="1">
          <mxGeometry x="40" y="80.5" width="60" height="30" as="geometry" />
        </mxCell>
        <mxCell id="1FSIef8bJNcw6CDsYBxZ-70" value="&lt;font style=&quot;font-size: 16px;&quot; face=&quot;Times New Roman&quot;&gt;B&lt;/font&gt;" style="text;html=1;strokeColor=none;fillColor=none;align=center;verticalAlign=middle;whiteSpace=wrap;rounded=0;" vertex="1" parent="1">
          <mxGeometry x="440" y="80.5" width="60" height="30" as="geometry" />
        </mxCell>
      </root>
    </mxGraphModel>
  </diagram>
</mxfile>
